<?xml version="1.0" standalone="no"?><!DOCTYPE svg PUBLIC "-//W3C//DTD SVG 1.1//EN" "http://www.w3.org/Graphics/SVG/1.1/DTD/svg11.dtd"><svg t="1637027492277" class="icon" viewBox="0 0 1024 1024" version="1.1" xmlns="http://www.w3.org/2000/svg" p-id="3149" xmlns:xlink="http://www.w3.org/1999/xlink" width="200" height="200"><defs><style type="text/css"></style></defs><path d="M881.122407 621.543905 881.122407 356.892363c0-39.813774-21.202904-77.258595-55.334259-97.732905L570.631864 106.080014c-36.174897-21.714558-81.103156-21.714558-117.274984 0L198.199573 259.160481c-34.121122 20.47431-55.335283 57.919131-55.335283 97.732905l0 312.467571c0 39.791262 21.214161 77.236082 55.335283 97.721649l255.156284 153.09991c18.107403 10.851139 38.389332 16.284895 58.657958 16.284895 20.260439 0 40.509622-5.41022 58.551534-16.240893l257.883395-153.446811-0.172939-0.316202c6.191003-3.682879 10.524704-10.157337 10.524704-17.869996 0-11.707646-9.473769-21.181415-21.181415-21.181415-3.966335 0-7.462972 1.38965-10.646478 3.28072l-0.171915-0.292666L548.850791 883.889939c-22.735817 13.645788-50.967812 13.645788-73.703629 0L219.979622 730.790028c-21.453614-12.871145-34.771945-36.422538-34.771945-61.429071L185.207677 356.892363c0-25.029046 13.31833-48.557926 34.771945-61.429071l255.166517-153.090701c22.73684-13.642718 50.968835-13.642718 73.703629 0l255.147074 153.090701c21.463848 12.871145 34.793434 36.400025 34.793434 61.429071l0 264.660752 0 0.044002c0 11.688203 9.472745 21.160949 21.171182 21.160949 11.68718 0 21.171182-9.472745 21.171182-21.160949C881.133663 621.575628 881.122407 621.563348 881.122407 621.543905z" p-id="3150" fill="#cce3f9"></path><path d="M296.758286 582.804602c-26.929326 18.46863-30.448476 56.553017-21.780049 86.663802 10.287297 35.760458 35.565007 58.843176 64.427358 58.843176L684.994518 728.311581c28.766161 0 53.934376-22.995737 64.103993-58.559721 8.656147-30.372751 4.983501-68.730361-22.174022-86.925768-29.447682-27.374464-69.64008-61.796438-94.679359-71.030753-25.461905-9.341762-65.470107 11.155061-91.321892 28.851095-22.487154 15.413038-37.066197 15.728216-57.582463 0.478907-15.968693-11.862165-50.03558-31.959899-76.292594-31.959899-5.65786 0-10.937097 0.8913-15.662725 2.629897C365.106953 521.472745 321.665559 559.63695 296.758286 582.804602zM552.956296 582.771857l-30.53648 54.110385c-3.116991 3.735068-7.450692 6.309706-12.621459 5.767354-4.953825-0.086981-9.406231-2.315742-12.42703-6.169513l-28.831652-54.574966C496.177128 598.481653 523.550569 598.894046 552.956296 582.771857zM460.6551 657.586796l1.293459 2.15099c10.69969 15.498996 28.352745 24.952298 47.211255 25.244964 0.280386 0 0.596588 0 0.87902 0 18.552541 0 36.09508-8.841366 47.110971-23.812335L618.851075 552.107463c14.230096 5.90857 45.090964 29.925566 79.634712 62.08194l4.226255 3.388167c8.233522 5.126764 10.709923 22.921036 5.691629 40.530089-4.702092 16.412808-14.32731 27.884071-23.409153 27.884071L339.405595 685.99173c-10.254551 0-19.704784-14.19735-23.735587-28.209482-5.040806-17.534352-2.639107-35.251875 5.659907-40.476877l3.856841-3.095501c33.968649-31.751145 64.449871-55.520501 79.905888-61.842487L460.6551 657.586796z" p-id="3151" fill="#cce3f9"></path><path d="M511.863389 521.073656l0.162706 0c72.215742-0.110517 118.284987-73.770144 118.284987-124.44529 0-41.029462 0-137.099495-118.306476-137.099495-104.847953 0-118.306476 73.27998-118.306476 137.099495C393.697105 447.369004 439.723372 521.073656 511.863389 521.073656zM512.004605 301.861002c70.25918 0 75.985602 42.908252 75.985602 94.767364 0 33.033347-31.914874 82.057901-76.028581 82.111113l-0.098237 0c-47.048549 0-75.833129-53.152571-75.833129-82.111113C436.030259 344.769254 441.754634 301.861002 512.004605 301.861002z" p-id="3152" fill="#cce3f9"></path></svg>